# xmcd
#
# Track frame offsets: 
#        150
#        14052
#        29091
#        44244
#        62416
#        77923
#
# Disc length: 1259 seconds
#
# Revision: 0
# Processed by: cddbd v1.5.1PL0 Copyright (c) Steve Scherf et al.
# Submitted via: ExactAudioCopy v0.95a5
#
DISCID=5304e906
DTITLE=Mr Roux - Les derniers seront les premiers
DYEAR=2004
DGENRE=Chanson
TTITLE0=Le bouffon de la cité
TTITLE1=Petit rasta
TTITLE2=Les papiers sacrés
TTITLE3=Ta femme
TTITLE4=Ah! Si j'étais grand et beau
TTITLE5=Un homme ordinaire (live)
EXTD=
EXTT0=
EXTT1=
EXTT2=
EXTT3=
EXTT4=
EXTT5=
PLAYORDER=
